<svg width="114" height="35" viewBox="0 0 114 35" fill="none" xmlns="http://www.w3.org/2000/svg">
<path d="M41.0815 11.9716V8.54545H55.8344V11.9716H50.5418V26H46.3827V11.9716H41.0815ZM57.0154 26V12.9091H61.0637V15.2955H61.2C61.4387 14.4318 61.8279 13.7898 62.3677 13.3693C62.9074 12.9432 63.5353 12.7301 64.2512 12.7301C64.4444 12.7301 64.6432 12.7443 64.8478 12.7727C65.0523 12.7955 65.2427 12.8324 65.4188 12.8835V16.5057C65.2199 16.4375 64.9586 16.3835 64.6347 16.3438C64.3165 16.304 64.0324 16.2841 63.7824 16.2841C63.2881 16.2841 62.8421 16.3949 62.4444 16.6165C62.0523 16.8324 61.7427 17.1364 61.5154 17.5284C61.2938 17.9148 61.183 18.3693 61.183 18.892V26H57.0154ZM67.5969 26V12.9091H71.7646V26H67.5969ZM69.685 11.3835C69.0998 11.3835 68.5969 11.1903 68.1765 10.804C67.756 10.4119 67.5458 9.94034 67.5458 9.3892C67.5458 8.84375 67.756 8.37784 68.1765 7.99148C68.5969 7.59943 69.0998 7.40341 69.685 7.40341C70.2759 7.40341 70.7788 7.59943 71.1935 7.99148C71.614 8.37784 71.8242 8.84375 71.8242 9.3892C71.8242 9.94034 71.614 10.4119 71.1935 10.804C70.7788 11.1903 70.2759 11.3835 69.685 11.3835ZM79.0649 18.5341V26H74.8973V12.9091H78.8603V15.3125H79.0052C79.295 14.5114 79.7893 13.8835 80.4882 13.429C81.187 12.9688 82.0194 12.7386 82.9853 12.7386C83.9058 12.7386 84.7041 12.946 85.3802 13.3608C86.062 13.7699 86.5904 14.3437 86.9654 15.0824C87.3461 15.8153 87.5336 16.6733 87.5279 17.6562V26H83.3603V18.4744C83.366 17.7472 83.1813 17.179 82.8063 16.7699C82.437 16.3608 81.9228 16.1562 81.2637 16.1562C80.8262 16.1562 80.4399 16.2528 80.1046 16.446C79.7751 16.6335 79.5194 16.9034 79.3376 17.2557C79.1615 17.608 79.0705 18.0341 79.0649 18.5341ZM97.9774 12.9091V15.9773H89.7189V12.9091H97.9774ZM91.449 9.77273H95.6166V21.8835C95.6166 22.1392 95.6564 22.3466 95.7359 22.5057C95.8211 22.6591 95.9433 22.7699 96.1024 22.8381C96.2615 22.9006 96.4518 22.9318 96.6734 22.9318C96.8325 22.9318 97.0001 22.9176 97.1763 22.8892C97.3581 22.8551 97.4944 22.8267 97.5853 22.804L98.216 25.8125C98.0172 25.8693 97.7359 25.9403 97.3723 26.0256C97.0143 26.1108 96.5853 26.1648 96.0853 26.1875C95.1081 26.233 94.27 26.1193 93.5711 25.8466C92.878 25.5682 92.3467 25.1364 91.9774 24.5511C91.6138 23.9659 91.4376 23.2301 91.449 22.3438V9.77273ZM104.274 26.2216C103.439 26.2216 102.697 26.0824 102.05 25.804C101.408 25.5199 100.899 25.0937 100.524 24.5256C100.155 23.9517 99.9702 23.233 99.9702 22.3693C99.9702 21.642 100.098 21.0284 100.354 20.5284C100.609 20.0284 100.962 19.6222 101.411 19.3097C101.859 18.9972 102.376 18.7614 102.962 18.6023C103.547 18.4375 104.172 18.3267 104.837 18.2699C105.581 18.2017 106.18 18.1307 106.635 18.0568C107.089 17.9773 107.419 17.8665 107.624 17.7244C107.834 17.5767 107.939 17.3693 107.939 17.1023V17.0597C107.939 16.6222 107.788 16.2841 107.487 16.0455C107.186 15.8068 106.78 15.6875 106.268 15.6875C105.717 15.6875 105.274 15.8068 104.939 16.0455C104.604 16.2841 104.391 16.6136 104.3 17.0341L100.456 16.8977C100.57 16.1023 100.862 15.392 101.334 14.767C101.811 14.1364 102.464 13.642 103.294 13.2841C104.129 12.9205 105.132 12.7386 106.303 12.7386C107.138 12.7386 107.908 12.8381 108.612 13.0369C109.317 13.2301 109.93 13.5142 110.453 13.8892C110.976 14.2585 111.379 14.7131 111.663 15.2528C111.953 15.7926 112.098 16.4091 112.098 17.1023V26H108.178V24.1761H108.075C107.842 24.6193 107.544 24.9943 107.18 25.3011C106.822 25.608 106.399 25.8381 105.911 25.9915C105.428 26.1449 104.882 26.2216 104.274 26.2216ZM105.561 23.4943C106.01 23.4943 106.413 23.4034 106.771 23.2216C107.135 23.0398 107.425 22.7898 107.641 22.4716C107.857 22.1477 107.964 21.7727 107.964 21.3466V20.1023C107.845 20.1648 107.7 20.2216 107.53 20.2727C107.365 20.3239 107.183 20.3722 106.984 20.4176C106.786 20.4631 106.581 20.5028 106.371 20.5369C106.161 20.571 105.959 20.6023 105.766 20.6307C105.374 20.6932 105.038 20.7898 104.76 20.9205C104.487 21.0511 104.277 21.2216 104.129 21.4318C103.987 21.6364 103.916 21.8807 103.916 22.1648C103.916 22.5966 104.07 22.9261 104.376 23.1534C104.689 23.3807 105.084 23.4943 105.561 23.4943Z" fill="#262626"/>
<path d="M18.4619 0V9.66122L10.0942 14.492L17.5978 18.8242L20.3867 17.214L25.9648 13.9936V4.33171L18.4619 0Z" fill="url(#paint0_linear_1_1054)"/>
<path d="M18.4619 29.982L26.8289 34.8124L34.3315 30.4809L25.9648 25.6501V15.9889L18.4619 20.3208V29.982Z" fill="url(#paint1_linear_1_1054)"/>
<path d="M16.7337 20.3208L8.3667 15.4904L0 20.3202V28.9842L8.3667 24.1534L16.7337 28.9842V20.3208Z" fill="url(#paint2_linear_1_1054)"/>
<defs>
<linearGradient id="paint0_linear_1_1054" x1="18.0295" y1="18.8241" x2="18.0295" y2="1.57081e-05" gradientUnits="userSpaceOnUse">
<stop stop-color="#3761EE"/>
<stop offset="1" stop-color="#6EE2F5"/>
</linearGradient>
<linearGradient id="paint1_linear_1_1054" x1="18.6998" y1="20.0372" x2="33.0154" y2="32.0494" gradientUnits="userSpaceOnUse">
<stop stop-color="#3761EE"/>
<stop offset="1" stop-color="#6EE2F5"/>
</linearGradient>
<linearGradient id="paint2_linear_1_1054" x1="5.47853e-06" y1="22.2373" x2="16.7337" y2="22.2373" gradientUnits="userSpaceOnUse">
<stop stop-color="#6EE2F5"/>
<stop offset="1" stop-color="#3761EE"/>
</linearGradient>
</defs>
</svg>
