<svg width="214" height="82" viewBox="0 0 214 82" fill="none" xmlns="http://www.w3.org/2000/svg">
<path d="M92.7617 33.6193V27.9091H117.35V33.6193H108.529V57H101.597V33.6193H92.7617ZM119.318 57V35.1818H126.065V39.1591H126.293C126.69 37.7197 127.339 36.6496 128.239 35.9489C129.138 35.2386 130.185 34.8835 131.378 34.8835C131.7 34.8835 132.031 34.9072 132.372 34.9545C132.713 34.9924 133.03 35.054 133.324 35.1392V41.1761C132.992 41.0625 132.557 40.9725 132.017 40.9062C131.487 40.84 131.013 40.8068 130.597 40.8068C129.773 40.8068 129.029 40.9915 128.366 41.3608C127.713 41.7206 127.197 42.2273 126.818 42.8807C126.449 43.5246 126.264 44.2822 126.264 45.1534V57H119.318ZM136.954 57V35.1818H143.9V57H136.954ZM140.434 32.6392C139.459 32.6392 138.621 32.3172 137.92 31.6733C137.219 31.0199 136.869 30.2339 136.869 29.3153C136.869 28.4062 137.219 27.6297 137.92 26.9858C138.621 26.3324 139.459 26.0057 140.434 26.0057C141.419 26.0057 142.257 26.3324 142.948 26.9858C143.649 27.6297 144 28.4062 144 29.3153C144 30.2339 143.649 31.0199 142.948 31.6733C142.257 32.3172 141.419 32.6392 140.434 32.6392ZM156.067 44.5568V57H149.121V35.1818H155.726V39.1875H155.968C156.451 37.8523 157.275 36.8059 158.439 36.0483C159.604 35.2812 160.992 34.8977 162.601 34.8977C164.135 34.8977 165.466 35.2434 166.593 35.9347C167.729 36.6165 168.61 37.5729 169.235 38.804C169.869 40.0256 170.182 41.4555 170.172 43.0938V57H163.226V44.4574C163.236 43.2453 162.928 42.2983 162.303 41.6165C161.688 40.9347 160.831 40.5938 159.732 40.5938C159.003 40.5938 158.359 40.7547 157.8 41.0767C157.251 41.3892 156.825 41.839 156.522 42.4261C156.228 43.0133 156.077 43.7235 156.067 44.5568ZM187.588 35.1818V40.2955H173.824V35.1818H187.588ZM176.707 29.9545H183.653V50.1392C183.653 50.5653 183.72 50.911 183.852 51.1761C183.994 51.4318 184.198 51.6165 184.463 51.7301C184.728 51.8343 185.046 51.8864 185.415 51.8864C185.68 51.8864 185.959 51.8627 186.253 51.8153C186.556 51.7585 186.783 51.7112 186.935 51.6733L187.986 56.6875C187.654 56.7822 187.186 56.9006 186.58 57.0426C185.983 57.1847 185.268 57.2746 184.435 57.3125C182.806 57.3883 181.409 57.1989 180.244 56.7443C179.089 56.2803 178.204 55.5606 177.588 54.5852C176.982 53.6098 176.689 52.3835 176.707 50.9062V29.9545ZM198.083 57.3693C196.691 57.3693 195.455 57.1373 194.375 56.6733C193.305 56.1998 192.458 55.4896 191.833 54.5426C191.217 53.5862 190.909 52.3883 190.909 50.9489C190.909 49.7367 191.123 48.714 191.549 47.8807C191.975 47.0473 192.562 46.3703 193.31 45.8494C194.058 45.3286 194.92 44.9356 195.895 44.6705C196.871 44.3958 197.912 44.2112 199.02 44.1165C200.261 44.0028 201.26 43.8845 202.017 43.7614C202.775 43.6288 203.324 43.4441 203.665 43.2074C204.016 42.9612 204.191 42.6155 204.191 42.1705V42.0994C204.191 41.3703 203.94 40.8068 203.438 40.4091C202.936 40.0114 202.259 39.8125 201.407 39.8125C200.488 39.8125 199.749 40.0114 199.191 40.4091C198.632 40.8068 198.277 41.3561 198.125 42.0568L191.719 41.8295C191.908 40.5038 192.396 39.3201 193.182 38.2784C193.978 37.2273 195.067 36.4034 196.449 35.8068C197.841 35.2008 199.513 34.8977 201.463 34.8977C202.855 34.8977 204.139 35.0634 205.313 35.3949C206.487 35.7169 207.51 36.1903 208.381 36.8153C209.252 37.4309 209.925 38.1884 210.398 39.0881C210.881 39.9877 211.123 41.0152 211.123 42.1705V57H204.588V53.9602H204.418C204.03 54.6989 203.533 55.3239 202.926 55.8352C202.33 56.3466 201.624 56.7301 200.81 56.9858C200.005 57.2415 199.096 57.3693 198.083 57.3693ZM200.228 52.8239C200.976 52.8239 201.648 52.6723 202.245 52.3693C202.851 52.0663 203.334 51.6496 203.694 51.1193C204.053 50.5795 204.233 49.9545 204.233 49.2443V47.1705C204.034 47.2746 203.793 47.3693 203.509 47.4545C203.234 47.5398 202.931 47.6203 202.6 47.696C202.268 47.7718 201.927 47.8381 201.577 47.8949C201.227 47.9517 200.891 48.0038 200.569 48.0511C199.915 48.1553 199.356 48.3163 198.892 48.5341C198.438 48.7519 198.087 49.036 197.841 49.3864C197.605 49.7273 197.486 50.1345 197.486 50.608C197.486 51.3277 197.742 51.8769 198.253 52.2557C198.774 52.6345 199.432 52.8239 200.228 52.8239Z" fill="white"/>
<path d="M43.2999 0V22.6577L23.6758 33.9869L41.2734 44.1469L47.8141 40.3706L60.896 32.8182V10.1588L43.2999 0Z" fill="url(#paint0_linear_1025_7714)"/>
<path d="M43.293 70.314L62.9155 81.6424L80.5108 71.484L60.8891 60.1548V37.4971L43.293 47.6563V70.314Z" fill="url(#paint1_linear_1025_7714)"/>
<path d="M39.2443 47.6565L19.6218 36.3281L0 47.6551V67.9742L19.6218 56.645L39.2443 67.9742V47.6565Z" fill="url(#paint2_linear_1025_7714)"/>
<defs>
<linearGradient id="paint0_linear_1025_7714" x1="42.2859" y1="44.1468" x2="42.2859" y2="3.68389e-05" gradientUnits="userSpaceOnUse">
<stop stop-color="#3761EE"/>
<stop offset="1" stop-color="#6EE2F5"/>
</linearGradient>
<linearGradient id="paint1_linear_1025_7714" x1="43.8509" y1="46.9913" x2="77.4241" y2="75.1626" gradientUnits="userSpaceOnUse">
<stop stop-color="#3761EE"/>
<stop offset="1" stop-color="#6EE2F5"/>
</linearGradient>
<linearGradient id="paint2_linear_1025_7714" x1="1.28484e-05" y1="52.1512" x2="39.2443" y2="52.1512" gradientUnits="userSpaceOnUse">
<stop stop-color="#6EE2F5"/>
<stop offset="1" stop-color="#3761EE"/>
</linearGradient>
</defs>
</svg>
