<svg width="52" height="53" viewBox="0 0 52 53" fill="none" xmlns="http://www.w3.org/2000/svg">
<rect width="52" height="53" fill="#FFF4EE"/>
<path fill-rule="evenodd" clip-rule="evenodd" d="M34.1721 38.7712C40.7044 38.7712 45.9999 33.4142 45.9999 26.806C45.9999 20.1978 40.7044 14.8408 34.1721 14.8408C31.2445 14.8408 28.5653 15.9168 26.4999 17.6991C24.4346 15.9168 21.7554 14.8408 18.8279 14.8408C12.2955 14.8408 7 20.1978 7 26.806C7 33.4142 12.2955 38.7712 18.8279 38.7712C21.7554 38.7712 24.4346 37.6952 26.5 35.9129C28.5654 37.6952 31.2445 38.7712 34.1721 38.7712Z" fill="#ED0006"/>
<path fill-rule="evenodd" clip-rule="evenodd" d="M26.5 35.9129C29.0432 33.7182 30.6558 30.4526 30.6558 26.806C30.6558 23.1594 29.0432 19.8937 26.5 17.6991C28.5654 15.9168 31.2445 14.8408 34.1721 14.8408C40.7044 14.8408 46 20.1978 46 26.806C46 33.4142 40.7044 38.7712 34.1721 38.7712C31.2445 38.7712 28.5654 37.6952 26.5 35.9129Z" fill="#F9A000"/>
<path fill-rule="evenodd" clip-rule="evenodd" d="M26.5002 35.9127C29.0433 33.7181 30.6558 30.4525 30.6558 26.806C30.6558 23.1594 29.0433 19.8938 26.5002 17.6992C23.957 19.8938 22.3445 23.1594 22.3445 26.806C22.3445 30.4525 23.957 33.7181 26.5002 35.9127Z" fill="#FF5E00"/>
</svg>
