<svg width="52" height="53" viewBox="0 0 52 53" fill="none" xmlns="http://www.w3.org/2000/svg">
<rect width="52" height="53" fill="#F3FBFF"/>
<path fill-rule="evenodd" clip-rule="evenodd" d="M11.6345 21.8231H8.68545C8.48365 21.8231 8.31202 21.9698 8.28055 22.1689L7.08781 29.7311C7.0641 29.8804 7.17966 30.0149 7.33102 30.0149H8.73892C8.94072 30.0149 9.11235 29.8682 9.14382 29.6687L9.46552 27.6291C9.49655 27.4293 9.6686 27.2828 9.86999 27.2828H10.8035C12.7462 27.2828 13.8673 26.3427 14.1602 24.4799C14.2921 23.665 14.1658 23.0246 13.784 22.576C13.365 22.0837 12.6215 21.8231 11.6345 21.8231ZM11.9747 24.5851C11.8135 25.6433 11.0049 25.6433 10.2232 25.6433H9.77814L10.0903 23.667C10.1089 23.5476 10.2124 23.4596 10.3331 23.4596H10.5371C11.0696 23.4596 11.572 23.4596 11.8316 23.7632C11.9863 23.9443 12.0338 24.2133 11.9747 24.5851ZM20.4498 24.5512H19.0376C18.9173 24.5512 18.8133 24.6392 18.7948 24.7587L18.7323 25.1536L18.6335 25.0105C18.3278 24.5667 17.6461 24.4185 16.9657 24.4185C15.405 24.4185 14.0722 25.6004 13.8126 27.2585C13.6777 28.0854 13.8694 28.8762 14.3386 29.4278C14.769 29.9349 15.3848 30.1462 16.1174 30.1462C17.3748 30.1462 18.0722 29.3376 18.0722 29.3376L18.0091 29.7301C17.9854 29.8802 18.1009 30.0147 18.2514 30.0147H19.5235C19.7259 30.0147 19.8965 29.868 19.9284 29.6685L20.6917 24.8349C20.7158 24.6863 20.6007 24.5512 20.4498 24.5512ZM18.4813 27.2998C18.345 28.1066 17.7046 28.6482 16.8881 28.6482C16.478 28.6482 16.1501 28.5167 15.9398 28.2674C15.7311 28.02 15.6516 27.6676 15.7181 27.2752C15.8454 26.4753 16.4965 25.9161 17.3007 25.9161C17.7016 25.9161 18.0277 26.0492 18.2424 26.3006C18.4575 26.5547 18.5429 26.9091 18.4813 27.2998ZM26.5519 24.551H27.9711C28.1699 24.551 28.2858 24.7739 28.1729 24.9369L23.4529 31.75C23.3764 31.8603 23.2505 31.926 23.116 31.926H21.6986C21.4991 31.926 21.3825 31.7013 21.4981 31.5379L22.9678 29.4633L21.4047 24.876C21.3506 24.7166 21.4683 24.551 21.638 24.551H23.0324C23.2136 24.551 23.3735 24.6699 23.4257 24.8433L24.2553 27.6139L26.2127 24.7308C26.2893 24.6182 26.4166 24.551 26.5519 24.551Z" fill="#253B80"/>
<path fill-rule="evenodd" clip-rule="evenodd" d="M41.9392 29.7305L43.1494 22.03C43.168 21.9105 43.2716 21.8225 43.3919 21.8221H44.7544C44.9049 21.8221 45.0204 21.957 44.9967 22.1062L43.8032 29.668C43.772 29.8676 43.6004 30.0142 43.3983 30.0142H42.1814C42.031 30.0142 41.9154 29.8797 41.9392 29.7305ZM32.6702 21.8225H29.7207C29.5193 21.8225 29.3477 21.9692 29.3162 22.1683L28.1235 29.7305C28.0997 29.8797 28.2153 30.0142 28.3659 30.0142H29.8793C30.02 30.0142 30.1403 29.9117 30.1623 29.772L30.5007 27.6284C30.5318 27.4287 30.7039 27.2822 30.9052 27.2822H31.8383C33.7813 27.2822 34.9022 26.3421 35.1953 24.4793C35.3277 23.6643 35.2005 23.024 34.819 22.5754C34.4001 22.0831 33.6572 21.8225 32.6702 21.8225ZM33.0105 24.5845C32.8496 25.6427 32.041 25.6427 31.2588 25.6427H30.8142L31.1269 23.6663C31.1455 23.547 31.248 23.459 31.3692 23.459H31.5731C32.1053 23.459 32.6082 23.459 32.8676 23.7625C33.0224 23.9437 33.0695 24.2127 33.0105 24.5845ZM41.4848 24.5505H40.0736C39.9522 24.5505 39.8493 24.6385 39.8311 24.7581L39.7687 25.153L39.6695 25.0099C39.3638 24.5661 38.6825 24.4178 38.002 24.4178C36.4413 24.4178 35.1089 25.5998 34.8493 27.2578C34.7148 28.0848 34.9058 28.8756 35.3749 29.4272C35.8062 29.9342 36.4212 30.1455 37.1537 30.1455C38.4111 30.1455 39.1083 29.337 39.1083 29.337L39.0455 29.7295C39.0217 29.8795 39.1373 30.014 39.2887 30.014H40.5603C40.7616 30.014 40.9332 29.8674 40.9648 29.6678L41.7284 24.8343C41.7518 24.6856 41.6363 24.5505 41.4848 24.5505ZM39.5164 27.2992C39.3809 28.1059 38.7398 28.6475 37.923 28.6475C37.5137 28.6475 37.1853 28.516 36.9747 28.2668C36.766 28.0193 36.6876 27.6669 36.7532 27.2746C36.8812 26.4746 37.5315 25.9155 38.3357 25.9155C38.7368 25.9155 39.0626 26.0486 39.2776 26.3C39.4935 26.554 39.5789 26.9084 39.5164 27.2992Z" fill="#179BD7"/>
</svg>
