<svg width="53" height="53" viewBox="0 0 53 53" fill="none" xmlns="http://www.w3.org/2000/svg">
<path d="M13.25 0C11.4281 0 9.9375 1.49062 9.9375 3.3125V49.6875C9.9375 51.5094 11.4281 53 13.25 53H46.375C48.1969 53 49.6875 51.5094 49.6875 49.6875V13.25L36.4375 0H13.25Z" fill="#E2E5E7"/>
<path d="M39.75 13.25H49.6875L36.4375 0V9.9375C36.4375 11.7594 37.9281 13.25 39.75 13.25Z" fill="#B0B7BD"/>
<path d="M49.6875 23.1875L39.75 13.25H49.6875V23.1875Z" fill="#CAD1D8"/>
<path d="M43.0625 43.0625C43.0625 43.9734 42.3172 44.7188 41.4062 44.7188H4.96875C4.05781 44.7188 3.3125 43.9734 3.3125 43.0625V26.5C3.3125 25.5891 4.05781 24.8438 4.96875 24.8438H41.4062C42.3172 24.8438 43.0625 25.5891 43.0625 26.5V43.0625Z" fill="#EE368C"/>
<path d="M18.9582 32.2584C18.9582 32.7871 18.8369 33.2724 18.5942 33.7144C18.3516 34.1477 17.9789 34.4987 17.4762 34.7674C16.9736 35.0361 16.3496 35.1704 15.6042 35.1704H14.2262V38.4464H12.0032V29.3204H15.6042C16.3322 29.3204 16.9476 29.4461 17.4502 29.6974C17.9529 29.9487 18.3299 30.2954 18.5812 30.7374C18.8326 31.1794 18.9582 31.6864 18.9582 32.2584ZM15.4352 33.4024C15.8599 33.4024 16.1762 33.3027 16.3842 33.1034C16.5922 32.9041 16.6962 32.6224 16.6962 32.2584C16.6962 31.8944 16.5922 31.6127 16.3842 31.4134C16.1762 31.2141 15.8599 31.1144 15.4352 31.1144H14.2262V33.4024H15.4352ZM23.6645 29.3204C24.6265 29.3204 25.4672 29.5111 26.1865 29.8924C26.9059 30.2737 27.4605 30.8111 27.8505 31.5044C28.2492 32.1891 28.4485 32.9821 28.4485 33.8834C28.4485 34.7761 28.2492 35.5691 27.8505 36.2624C27.4605 36.9557 26.9015 37.4931 26.1735 37.8744C25.4542 38.2557 24.6179 38.4464 23.6645 38.4464H20.2455V29.3204H23.6645ZM23.5215 36.5224C24.3622 36.5224 25.0165 36.2927 25.4845 35.8334C25.9525 35.3741 26.1865 34.7241 26.1865 33.8834C26.1865 33.0427 25.9525 32.3884 25.4845 31.9204C25.0165 31.4524 24.3622 31.2184 23.5215 31.2184H22.4685V36.5224H23.5215ZM35.7618 29.3204V31.1014H32.0438V33.0254H34.8258V34.7544H32.0438V38.4464H29.8208V29.3204H35.7618Z" fill="white"/>
<path d="M41.4062 44.7188H9.9375V46.375H41.4062C42.3172 46.375 43.0625 45.6297 43.0625 44.7188V43.0625C43.0625 43.9734 42.3172 44.7188 41.4062 44.7188Z" fill="#CAD1D8"/>
</svg>
