<svg width="55" height="55" viewBox="0 0 55 55" fill="none" xmlns="http://www.w3.org/2000/svg">
<path d="M6.1237 10.991C8.63097 7.7349 11.8557 5.10122 15.547 3.29488C19.2383 1.48855 23.2966 0.558267 27.4062 0.576433L27.2881 27.2881L6.1237 10.991Z" fill="#C6D2FD"/>
<path d="M8.39991 46.1763C3.81806 41.5944 1.05789 35.5033 0.63352 29.0375C0.20915 22.5717 2.14952 16.1721 6.0932 11.0307L27.2881 27.2881L8.39991 46.1763Z" fill="#93AAFD"/>
<path d="M8.39991 46.1763C11.5061 49.2824 15.3304 51.5746 19.534 52.8498C23.7377 54.125 28.1909 54.3437 32.4993 53.4867C36.8077 52.6297 40.8383 50.7234 44.2339 47.9367C47.6296 45.1499 50.2856 41.5687 51.9667 37.5103C53.6477 33.4519 54.3019 29.0415 53.8714 24.6699C53.4408 20.2982 51.9387 16.1002 49.4982 12.4477C47.0577 8.79526 43.7541 5.80103 39.88 3.73028C36.0059 1.65953 31.6809 0.576172 27.2881 0.576172L27.2881 27.2881L8.39991 46.1763Z" fill="#4A3AFF"/>
</svg>
