<svg width="55" height="55" viewBox="0 0 55 55" fill="none" xmlns="http://www.w3.org/2000/svg">
<g clip-path="url(#clip0_349_3656)">
<mask id="mask0_349_3656" style="mask-type:alpha" maskUnits="userSpaceOnUse" x="-1" y="13" width="56" height="29">
<rect x="-0.0878906" y="13" width="55.0879" height="28.1995" fill="#D9D9D9"/>
</mask>
<g mask="url(#mask0_349_3656)">
<mask id="path-2-inside-1_349_3656" fill="white">
<path d="M-0.0884795 41.1838C-0.0884791 36.927 0.909141 32.7293 2.82436 28.9276C4.73958 25.1259 7.51909 21.8259 10.94 19.2924L17.9582 28.7687C16.0181 30.2055 14.4418 32.077 13.3556 34.233C12.2695 36.3891 11.7037 38.7697 11.7037 41.1838L-0.0884795 41.1838Z"/>
</mask>
<path d="M-0.0884795 41.1838C-0.0884791 36.927 0.909141 32.7293 2.82436 28.9276C4.73958 25.1259 7.51909 21.8259 10.94 19.2924L17.9582 28.7687C16.0181 30.2055 14.4418 32.077 13.3556 34.233C12.2695 36.3891 11.7037 38.7697 11.7037 41.1838L-0.0884795 41.1838Z" stroke="#F0E5FC" stroke-width="100" mask="url(#path-2-inside-1_349_3656)"/>
<mask id="path-3-inside-2_349_3656" fill="white">
<path d="M11.638 18.4699C17.6082 14.4009 24.9502 12.8702 32.0489 14.2145C39.1476 15.5588 45.4216 19.6681 49.4906 25.6382L39.4998 32.4474C37.2368 29.127 33.7474 26.8416 29.7993 26.0939C25.8511 25.3462 21.7677 26.1976 18.4473 28.4606L11.638 18.4699Z"/>
</mask>
<path d="M11.638 18.4699C17.6082 14.4009 24.9502 12.8702 32.0489 14.2145C39.1476 15.5588 45.4216 19.6681 49.4906 25.6382L39.4998 32.4474C37.2368 29.127 33.7474 26.8416 29.7993 26.0939C25.8511 25.3462 21.7677 26.1976 18.4473 28.4606L11.638 18.4699Z" stroke="#EE368C" stroke-width="100" mask="url(#path-3-inside-2_349_3656)"/>
<mask id="path-4-inside-3_349_3656" fill="white">
<path d="M50.2077 25.9966C53.2541 30.4287 54.9204 35.6633 54.9968 41.0408L43.2058 41.2082C43.1625 38.1584 42.2175 35.1898 40.4898 32.6762L50.2077 25.9966Z"/>
</mask>
<path d="M50.2077 25.9966C53.2541 30.4287 54.9204 35.6633 54.9968 41.0408L43.2058 41.2082C43.1625 38.1584 42.2175 35.1898 40.4898 32.6762L50.2077 25.9966Z" stroke="#C6D2FD" stroke-width="100" mask="url(#path-4-inside-3_349_3656)"/>
</g>
</g>
<defs>
<clipPath id="clip0_349_3656">
<rect width="55" height="55" fill="white"/>
</clipPath>
</defs>
</svg>
