<svg width="55" height="55" viewBox="0 0 55 55" fill="none" xmlns="http://www.w3.org/2000/svg">
<g clip-path="url(#clip0_51_627)">
<path d="M45.15 44.15C42.5552 46.7448 39.3961 48.7053 35.9192 49.8786C32.4422 51.0519 28.7412 51.4063 25.1047 50.9143C21.4682 50.4222 17.9945 49.0969 14.9543 47.0417C11.9142 44.9865 9.3898 42.257 7.57791 39.0659C5.76602 35.8748 4.71561 32.3083 4.50856 28.6445C4.30152 24.9807 4.94343 21.3186 6.38426 17.9437C7.8251 14.5688 10.0259 11.5722 12.8151 9.18759C15.6044 6.80298 18.9067 5.09478 22.4646 4.19614L28.3 27.3L45.15 44.15Z" fill="#3354F4"/>
<path d="M22.1325 4.28258C27.2119 2.92157 32.5988 3.27891 37.4539 5.29894C42.309 7.31898 46.3596 10.8882 48.9745 15.4506C51.5893 20.0129 52.6217 25.312 51.9106 30.5223C51.1996 35.7325 48.785 40.5613 45.0433 44.2561L28.3 27.3001L22.1325 4.28258Z" fill="#EE368C"/>
</g>
<defs>
<clipPath id="clip0_51_627">
<rect width="55" height="55" fill="white"/>
</clipPath>
</defs>
</svg>
