<svg width="34" height="40" viewBox="0 0 34 40" fill="none" xmlns="http://www.w3.org/2000/svg">
<path opacity="0.4" d="M17.1684 39.1667C16.931 39.1667 16.6937 39.1122 16.4795 39.0013L9.57742 35.4285C7.6189 34.4135 6.08682 33.2746 4.89048 31.9477C2.27204 29.0458 0.815208 25.3207 0.792053 21.4565L0.711011 8.73821C0.701363 7.27035 1.64879 5.95285 3.0651 5.45667L15.7386 1.03805C16.4911 0.769288 17.3305 0.765529 18.0965 1.0249L30.8182 5.29315C32.2422 5.76866 33.2051 7.07676 33.2128 8.54275L33.2939 21.2705C33.319 25.129 31.9123 28.8691 29.3344 31.803C28.1515 33.1487 26.633 34.3045 24.6937 35.3382L17.8534 38.9919C17.6411 39.1066 17.4057 39.1648 17.1684 39.1667" fill="#2DB6F5"/>
<path d="M15.6999 24.4484C15.3294 24.4503 14.9589 24.3169 14.6733 24.0425L10.9994 20.5091C10.4321 19.9603 10.4263 19.0694 10.9879 18.5168C11.5494 17.9624 12.4659 17.9568 13.0351 18.5037L15.6787 21.0447L22.1331 14.6809C22.6965 14.1264 23.6131 14.1208 24.1804 14.6677C24.7496 15.2165 24.7554 16.1092 24.1939 16.6599L16.7206 24.0293C16.4389 24.3075 16.0704 24.4465 15.6999 24.4484" fill="#2DB6F5"/>
</svg>
