<svg width="52" height="53" viewBox="0 0 52 53" fill="none" xmlns="http://www.w3.org/2000/svg">
<rect width="52" height="53" fill="#FFF1FA"/>
<path fill-rule="evenodd" clip-rule="evenodd" d="M33.859 20C33.0441 20 32.3823 20.6584 32.3823 21.47C32.3823 22.2821 33.0441 22.939 33.859 22.939C34.6753 22.939 35.3366 22.2821 35.3366 21.47C35.3366 20.6584 34.6753 20 33.859 20ZM12.5563 24.9252C12.1777 24.9008 11.3004 24.844 11.3004 24.0586C11.3004 23.1109 12.5626 23.1109 13.0363 23.1109C13.8694 23.1109 14.9473 23.3554 15.7181 23.585C15.7181 23.585 16.1471 23.7359 16.5123 23.8896L16.5464 23.8992V21.3034L16.5008 21.2895C15.5909 20.973 14.5346 20.6689 12.5751 20.6689C9.19692 20.6689 8 22.6259 8 24.304C8 25.2703 8.41657 27.5467 12.2842 27.8088L12.2878 27.809C12.6193 27.8292 13.4836 27.8819 13.4836 28.6906C13.4836 29.3609 12.7709 29.7553 11.5725 29.7553C10.2595 29.7553 8.98479 29.423 8.21116 29.1065V31.7791C9.36969 32.0823 10.676 32.2322 12.207 32.2322C15.5088 32.2322 16.9889 30.3802 16.9889 28.544C16.9889 26.4629 15.3336 25.1104 12.5563 24.9252ZM22.5261 23.7715L22.5413 23.7321H26.0783C25.9776 24.0524 25.3465 25.9855 23.9077 27.8007C23.9077 27.8007 25.5101 30.5941 25.8763 32.1095H22.1728C22.1728 32.1095 21.7303 30.0976 20.8347 28.7608V32.1095H17.7421V21.2776L20.8347 20.6689V26.6453C21.9306 25.3268 22.4188 24.0517 22.5261 23.7715ZM41.0029 32.1095V21.2022L44 20.6689V32.1095H41.0029ZM30.6712 23.6189C27.9025 23.7077 26.4959 24.9443 26.4959 27.402V32.1095H29.5174V28.27C29.5174 26.7991 29.7113 26.1684 31.4664 26.1082V23.6624C31.1712 23.5998 30.6712 23.6189 30.6712 23.6189ZM32.3615 32.1095V23.7416H35.3581V32.1095H32.3615ZM36.6281 21.2022L39.6233 20.6689V32.1095H36.6281V21.2022Z" fill="#862165"/>
</svg>
