<svg width="32" height="32" viewBox="0 0 32 32" fill="none" xmlns="http://www.w3.org/2000/svg">
<path d="M5.33333 2.66663H26.6667C27.4031 2.66663 28 3.26359 28 3.99996V29.7017C28 30.07 27.7015 30.3685 27.3333 30.3685C27.2397 30.3685 27.1472 30.3486 27.0617 30.3105L16 25.375L4.93831 30.3105C4.60207 30.4606 4.20788 30.3096 4.05785 29.9734C4.01971 29.8878 4 29.7953 4 29.7017V3.99996C4 3.26359 4.59696 2.66663 5.33333 2.66663ZM25.3333 26.6193V5.33329H6.66667V26.6193L16 22.4549L25.3333 26.6193ZM16 18L12.0814 20.0601L12.8298 15.6966L9.65963 12.6065L14.0407 11.9699L16 7.99996L17.9593 11.9699L22.3404 12.6065L19.1701 15.6966L19.9185 20.0601L16 18Z" fill="#EE8336"/>
</svg>
