<svg width="52" height="53" viewBox="0 0 52 53" fill="none" xmlns="http://www.w3.org/2000/svg">
<path d="M13 0C11.2125 0 9.75 1.49062 9.75 3.3125V49.6875C9.75 51.5094 11.2125 53 13 53H45.5C47.2875 53 48.75 51.5094 48.75 49.6875V13.25L35.75 0H13Z" fill="#E2E5E7"/>
<path d="M39 13.25H48.75L35.75 0V9.9375C35.75 11.7594 37.2125 13.25 39 13.25Z" fill="#B0B7BD"/>
<path d="M48.75 23.1875L39 13.25H48.75V23.1875Z" fill="#CAD1D8"/>
<path d="M42.25 43.0625C42.25 43.9734 41.5187 44.7188 40.625 44.7188H4.875C3.98125 44.7188 3.25 43.9734 3.25 43.0625V26.5C3.25 25.5891 3.98125 24.8438 4.875 24.8438H40.625C41.5187 24.8438 42.25 25.5891 42.25 26.5V43.0625Z" fill="#662D80"/>
<path d="M18.1281 29.3204V31.1014H15.7101V38.4464H13.4871V31.1014H11.0691V29.3204H18.1281ZM24.9638 38.4464L23.1048 35.6514L21.4668 38.4464H18.9448L21.8698 33.8054L18.8798 29.3204H21.4668L23.2998 32.0764L24.9118 29.3204H27.4338L24.5348 33.9224L27.5508 38.4464H24.9638ZM35.3618 29.3204V31.1014H32.9438V38.4464H30.7208V31.1014H28.3028V29.3204H35.3618Z" fill="white"/>
<path d="M40.625 44.7188H9.75V46.375H40.625C41.5187 46.375 42.25 45.6297 42.25 44.7188V43.0625C42.25 43.9734 41.5187 44.7188 40.625 44.7188Z" fill="#CAD1D8"/>
</svg>
