<svg width="22" height="29" viewBox="0 0 22 29" fill="none" xmlns="http://www.w3.org/2000/svg">
<path d="M0.333496 28.3334C0.333496 22.4423 5.10912 17.6667 11.0002 17.6667C16.8912 17.6667 21.6668 22.4423 21.6668 28.3334H0.333496ZM12.3335 20.444V25.6667H18.545C17.5899 22.9647 15.2247 20.929 12.3335 20.444ZM9.66683 25.6667V20.444C6.7757 20.929 4.41038 22.9647 3.45538 25.6667H9.66683ZM11.0002 16.3334C6.58016 16.3334 3.00016 12.7534 3.00016 8.33337C3.00016 3.91337 6.58016 0.333374 11.0002 0.333374C15.4202 0.333374 19.0002 3.91337 19.0002 8.33337C19.0002 12.7534 15.4202 16.3334 11.0002 16.3334ZM11.0002 13.6667C13.9474 13.6667 16.3335 11.2806 16.3335 8.33337C16.3335 5.38613 13.9474 3.00004 11.0002 3.00004C8.05292 3.00004 5.66683 5.38613 5.66683 8.33337C5.66683 11.2806 8.05292 13.6667 11.0002 13.6667Z" fill="#3761EE"/>
</svg>
