<svg width="52" height="53" viewBox="0 0 52 53" fill="none" xmlns="http://www.w3.org/2000/svg">
<rect y="6.10352e-05" width="52" height="53" fill="#EBFBFF"/>
<path d="M7.23937 33.5834V29.3591H6V28.0517H9.98633V29.3591H8.74696V33.5834H7.23937ZM10.7231 33.5834V28.0517H12.2988C12.9159 28.0517 13.3459 28.0801 13.589 28.1369C13.8321 28.1934 14.0419 28.2886 14.2182 28.422C14.4172 28.5731 14.5702 28.7658 14.6773 29C14.7843 29.2344 14.8379 29.4926 14.8379 29.7746C14.8379 30.2029 14.7327 30.5512 14.5224 30.8194C14.312 31.0877 14.0053 31.2659 13.6022 31.3542L15.1098 33.5833H13.4058L12.1362 31.4182V33.5833H10.7231V33.5834ZM12.1363 30.6665H12.4158C12.7408 30.6665 12.9781 30.6111 13.1281 30.5002C13.2779 30.3894 13.3529 30.2156 13.3529 29.9786C13.3529 29.7015 13.2831 29.5046 13.1432 29.3874C13.0036 29.2703 12.7686 29.2117 12.4385 29.2117H12.1363V30.6665Z" fill="#00AFD8"/>
<path d="M15.0349 33.5835L16.9431 28.0518H18.8323L20.7442 33.5835H19.244L18.9645 32.5936H16.8221L16.535 33.5835H15.0349ZM17.1471 31.5167H18.6471L18.0842 29.6916C18.0666 29.6364 18.0426 29.5468 18.0124 29.4234C17.9821 29.3001 17.9432 29.1414 17.8953 28.9474C17.8641 29.0773 17.832 29.2071 17.799 29.3366C17.7687 29.4554 17.7366 29.5738 17.7026 29.6916L17.1471 31.5167ZM21.2732 33.5835V28.0518H22.7278L24.8172 30.897C24.8576 30.955 24.9238 31.0714 25.0157 31.2465C25.1075 31.4216 25.2091 31.6301 25.3199 31.8719C25.2924 31.6685 25.2704 31.4643 25.2538 31.2597C25.2408 31.1014 25.2339 30.9426 25.233 30.7837V28.0518H26.6802V33.5835H25.233L23.1435 30.7271C23.1006 30.6691 23.0332 30.5527 22.9414 30.3775C22.8494 30.2025 22.7493 29.9965 22.6409 29.7598C22.6711 29.9916 22.6932 30.1967 22.7071 30.3757C22.72 30.534 22.7269 30.6928 22.7278 30.8517V33.5835H21.2732ZM28.1122 31.7963C28.3365 32.0509 28.5573 32.2409 28.7753 32.3669C28.9932 32.4929 29.2105 32.5559 29.4272 32.5559C29.6287 32.5559 29.7943 32.5017 29.924 32.3933C30.0537 32.285 30.1186 32.1477 30.1186 31.9815C30.1186 31.7976 30.0625 31.6559 29.9505 31.5565C29.8383 31.4569 29.5845 31.3544 29.1891 31.2485C28.6476 31.1025 28.2645 30.9121 28.0404 30.6779C27.8161 30.4436 27.7042 30.1225 27.7042 29.7143C27.7042 29.1853 27.8811 28.7541 28.2351 28.4203C28.589 28.0865 29.048 27.9196 29.6123 27.9196C29.917 27.9196 30.2061 27.9605 30.4794 28.0423C30.7528 28.1242 31.0116 28.2483 31.2559 28.4145L30.7836 29.4989C30.6123 29.353 30.4365 29.2426 30.2565 29.1682C30.0764 29.0941 29.8981 29.0568 29.7219 29.0568C29.5406 29.0568 29.3932 29.1004 29.2798 29.1872C29.1664 29.274 29.1098 29.3855 29.1098 29.5215C29.1098 29.66 29.1595 29.771 29.259 29.854C29.3586 29.9371 29.5507 30.0165 29.8352 30.0922L29.9032 30.111C30.5178 30.2773 30.9221 30.4599 31.1161 30.6589C31.2469 30.795 31.3466 30.9581 31.4146 31.1482C31.4825 31.3385 31.5167 31.5494 31.5167 31.7811C31.5167 32.3682 31.324 32.8398 30.9384 33.1963C30.553 33.5526 30.0392 33.7308 29.397 33.7308C29.0116 33.7308 28.6608 33.6653 28.3446 33.5344C28.0283 33.4034 27.7244 33.1981 27.432 32.9185L28.1122 31.7963ZM32.3629 33.5835V28.0518H35.7522V29.2647H33.8327V30.2244H35.6427V31.411H33.8327V33.5835H32.3629ZM36.5721 33.5835V28.0518H39.9614V29.2647H38.042V30.2244H39.852V31.411H38.042V32.3442H39.9614V33.5834H36.5721V33.5835ZM40.9589 33.5835V28.0518H42.5346C43.1519 28.0518 43.5818 28.0802 43.8249 28.137C44.068 28.1935 44.2778 28.2887 44.4541 28.4221C44.6532 28.5732 44.806 28.7659 44.9132 29.0002C45.0203 29.2345 45.0739 29.4928 45.0739 29.7747C45.0739 30.203 44.9686 30.5513 44.7584 30.8195C44.548 31.0878 44.2414 31.266 43.8383 31.3543L45.3458 33.5834H43.6418L42.3721 31.4183V33.5834H40.9589V33.5835ZM42.3721 30.6666H42.6518C42.9767 30.6666 43.2141 30.6112 43.3639 30.5003C43.5137 30.3895 43.5887 30.2157 43.5887 29.9788C43.5887 29.7016 43.5188 29.5047 43.379 29.3875C43.2393 29.2704 43.0043 29.2118 42.6744 29.2118H42.3721V30.6666Z" fill="#00AFD8"/>
<path d="M23.2902 19.0588L24.2942 22.8574C24.3416 23.0285 24.3853 23.2067 24.4253 23.3923C24.4653 23.5778 24.5071 23.7907 24.5508 24.0308C24.6055 23.747 24.6518 23.5133 24.69 23.3295C24.7281 23.1457 24.7654 22.9883 24.8018 22.8574L25.7405 19.0588H27.9401L25.6806 27.0491H23.6613L22.6734 23.6379C22.6369 23.5177 22.577 23.2831 22.4933 22.9338C22.4568 22.7775 22.4278 22.6555 22.406 22.5682C22.3878 22.6446 22.3624 22.752 22.3296 22.8902C22.2459 23.2431 22.1823 23.4924 22.1386 23.6379L21.1671 27.0491H19.1423L16.8882 19.0588H19.0876L20.0045 22.8792C20.0482 23.0758 20.091 23.2722 20.1328 23.4687C20.1746 23.6651 20.2137 23.8671 20.2501 24.0745C20.2845 23.9141 20.32 23.754 20.3566 23.5941C20.4119 23.3553 20.4692 23.117 20.5285 22.8791L21.5328 19.0587H23.2902V19.0588ZM28.7479 27.0491V19.0588H30.9474V27.0491H28.7479ZM32.7048 27.0491V19.0588H34.9806C35.8719 19.0588 36.4932 19.0997 36.8444 19.1816C37.1955 19.2634 37.4984 19.4008 37.7532 19.5936C38.0406 19.8119 38.2616 20.0903 38.4163 20.4287C38.571 20.767 38.6482 21.1401 38.6482 21.5475C38.6482 22.1661 38.4963 22.6691 38.1926 23.0566C37.8887 23.4441 37.4458 23.7014 36.8637 23.8289L39.0413 27.0491H36.5798L34.746 23.9217V27.0491H32.7048V27.0491ZM34.746 22.8356H35.1498C35.6193 22.8356 35.9621 22.7556 36.1787 22.5955C36.3952 22.4355 36.5034 22.1844 36.5034 21.8423C36.5034 21.4422 36.4025 21.1574 36.2005 20.9882C35.9985 20.8191 35.6593 20.7344 35.1825 20.7344H34.746V22.8356ZM39.8708 27.0491V19.0588H44.7665V20.8108H41.994V22.1971H44.6082V23.9108H41.994V25.2589H44.7665V27.0491H39.8708Z" fill="#006E90"/>
<path d="M6.06616 19.0001H16.035V20.5822H6.06616V19.0001Z" fill="url(#paint0_linear_149_704)"/>
<path d="M6.06616 22.071H16.035V23.6532H6.06616V22.071Z" fill="url(#paint1_linear_149_704)"/>
<path d="M6.06616 25.4213H16.035V27.0034H6.06616V25.4213Z" fill="url(#paint2_linear_149_704)"/>
<defs>
<linearGradient id="paint0_linear_149_704" x1="6.06616" y1="19.7911" x2="16.035" y2="19.7911" gradientUnits="userSpaceOnUse">
<stop stop-color="#41E700" stop-opacity="0"/>
<stop offset="0.736" stop-color="#3ACD00"/>
<stop offset="0.781" stop-color="#36BE00"/>
<stop offset="0.926" stop-color="#299100"/>
<stop offset="1" stop-color="#248000"/>
</linearGradient>
<linearGradient id="paint1_linear_149_704" x1="6.06616" y1="22.8621" x2="16.035" y2="22.8621" gradientUnits="userSpaceOnUse">
<stop stop-color="#41E700" stop-opacity="0"/>
<stop offset="0.736" stop-color="#3ACD00"/>
<stop offset="0.781" stop-color="#36BE00"/>
<stop offset="0.926" stop-color="#299100"/>
<stop offset="1" stop-color="#248000"/>
</linearGradient>
<linearGradient id="paint2_linear_149_704" x1="6.06616" y1="26.2123" x2="16.035" y2="26.2123" gradientUnits="userSpaceOnUse">
<stop stop-color="#41E700" stop-opacity="0"/>
<stop offset="0.736" stop-color="#3ACD00"/>
<stop offset="0.781" stop-color="#36BE00"/>
<stop offset="0.926" stop-color="#299100"/>
<stop offset="1" stop-color="#248000"/>
</linearGradient>
</defs>
</svg>
